<svg xmlns="http://www.w3.org/2000/svg" version="1.1" xmlns:xlink="http://www.w3.org/1999/xlink" xmlns:svgjs="http://svgjs.dev/svgjs" width="1000" height="1000" viewBox="0 0 1000 1000"><rect width="1000" height="1000" fill="#ffffff"></rect><g transform="matrix(0.7,0,0,0.7,150.20862136152004,252.0509311740891)"><svg viewBox="0 0 348 247" data-background-color="#1f2937" preserveAspectRatio="xMidYMid meet" height="709" width="1000" xmlns="http://www.w3.org/2000/svg" xmlns:xlink="http://www.w3.org/1999/xlink"><g id="tight-bounds" transform="matrix(1,0,0,1,-0.10371461972709994,-0.09999999999999432)"><svg viewBox="0 0 348.2074292394542 247.2" height="247.2" width="348.2074292394542"><g><svg viewBox="0 0 395.52 280.7882192908758" height="247.2" width="348.2074292394542"><g transform="matrix(1,0,0,1,0,173.53838418644196)"><svg viewBox="0 0 395.52 107.24983510443387" height="107.24983510443387" width="395.52"><g id="textblocktransform"><svg viewBox="0 0 395.52 107.24983510443387" height="107.24983510443387" width="395.52" id="textblock"><g><svg viewBox="0 0 395.52 107.24983510443387" height="107.24983510443387" width="395.52"><g transform="matrix(1,0,0,1,0,0)"><svg width="395.52" viewBox="-0.5 -37 136.44 37" height="107.24983510443387" data-palette-color="#ffffff"><g class="wordmark-text-0" data-fill-palette-color="primary" id="text-0"><path d="M26.65-35.55Q26.5-34.6 26.5-33.1L26.5-33.1Q26.5-30.15 27.2-28.5L27.2-28.5 26.4-28.5Q25.85-29.55 25.6-31.25L25.6-31.25Q25.25-33.05 24.65-34.08 24.05-35.1 22.2-35.8 20.35-36.5 16.65-36.5L16.65-36.5Q16-36.5 15.2-36.4L15.2-36.4 15.2-3Q15.2-2 15.73-1.48 16.25-0.95 17.2-0.95L17.2-0.95Q18-0.95 18.95-1.25L18.95-1.25 18.95 0 7.7 0 7.7-1.25Q8.7-0.95 9.45-0.95L9.45-0.95Q10.4-0.95 10.93-1.48 11.45-2 11.45-3L11.45-3 11.45-36.4Q10.65-36.5 10.05-36.5L10.05-36.5Q6.35-36.5 4.5-35.8 2.65-35.1 2.05-34.08 1.45-33.05 1.1-31.25L1.1-31.25Q0.85-29.55 0.3-28.5L0.3-28.5-0.5-28.5Q0.2-30.15 0.2-33.1L0.2-33.1Q0.2-34.6 0.05-35.55L0.05-35.55-0.1-37 26.8-37 26.65-35.55ZM34.95-1.25Q35.95-0.95 36.65-0.95L36.65-0.95Q38.6-0.95 38.6-3L38.6-3 38.6-17.3 29.8-34Q29.25-35.05 28.57-35.58 27.9-36.1 26.95-36.1L26.95-36.1Q26.45-36.1 25.2-35.75L25.2-35.75 25.2-37 37.25-37 37.25-35.75Q36.05-36.1 35.4-36.1L35.4-36.1Q34.6-36.1 34.12-35.8 33.65-35.5 33.65-34.9L33.65-34.9Q33.65-34.45 33.9-34L33.9-34 41.9-18.5 49.85-32.75 50.45-33.9Q50.7-34.35 50.7-34.8L50.7-34.8Q50.7-35.45 50.05-35.8 49.4-36.15 48.4-36.15L48.4-36.15Q47.4-36.15 46.2-35.75L46.2-35.75 46.2-37 56-37 56-35.75Q55.1-36.05 54.4-36.05L54.4-36.05Q53.1-36.05 52.4-35L52.4-35Q50.1-31.25 46.6-24.7L46.6-24.7Q44-19.85 42.55-17.3L42.55-17.3 42.55-3Q42.55-0.95 44.5-0.95L44.5-0.95Q45.25-0.95 46.2-1.25L46.2-1.25 46.2 0 34.95 0 34.95-1.25ZM65.55-35.75L65.55-37 65.55-35.75ZM91.45-37L100.9-37 100.9-35.75Q99.75-36.1 99.09-36.1L99.09-36.1Q97.55-36.1 97.25-35L97.25-35Q96.95-34 95.45-28.05L95.45-28.05Q89.05-2.8 88.95-2.35L88.95-2.35 88.34 0 85.4 0 77.65-26.95 71.4-2.45 71.45-2.35 71.3-2.05 70.8 0 67.9 0 58.1-34Q57.85-35 57.12-35.52 56.4-36.05 55.3-36.05L55.3-36.05Q54.45-36.05 53.5-35.75L53.5-35.75 53.5-37 65.55-37 65.55-35.75Q64.59-36.05 63.8-36.05L63.8-36.05Q63-36.05 62.55-35.7 62.1-35.35 62.1-34.7L62.1-34.7Q62.1-34.25 62.2-34L62.2-34 70.84-4.4 76.84-29.75 75.59-34Q75.3-35.05 74.87-35.55 74.45-36.05 73.59-36.05L73.59-36.05Q73-36.05 72-35.75L72-35.75 72-37 84.95-37 84.95-35.75Q83.95-36.05 82.84-36.05L82.84-36.05Q81.34-36.05 80.37-35.5 79.4-34.95 79.7-34L79.7-34 88.4-4.3 95.5-34Q95.59-34.3 95.59-34.75L95.59-34.75Q95.59-36.2 93.8-36.2L93.8-36.2Q92.7-36.2 91.45-35.75L91.45-35.75 91.45-37ZM135.94-35.75Q134.94-36.05 134.19-36.05L134.19-36.05Q133.24-36.05 132.72-35.52 132.19-35 132.19-34L132.19-34 132.19-3Q132.19-2 132.72-1.48 133.24-0.95 134.19-0.95L134.19-0.95Q134.99-0.95 135.94-1.25L135.94-1.25 135.94 0 124.69 0 124.69-1.25Q125.69-0.95 126.44-0.95L126.44-0.95Q127.39-0.95 127.92-1.48 128.44-2 128.44-3L128.44-3 128.44-20.15 109.89-20.15 109.89-3Q109.89-2 110.42-1.48 110.94-0.95 111.94-0.95L111.94-0.95Q112.69-0.95 113.64-1.25L113.64-1.25 113.64 0 102.39 0 102.39-1.25Q103.34-0.95 104.14-0.95L104.14-0.95Q105.09-0.95 105.62-1.48 106.14-2 106.14-3L106.14-3 106.14-34Q106.14-35 105.62-35.52 105.09-36.05 104.14-36.05L104.14-36.05Q103.34-36.05 102.39-35.75L102.39-35.75 102.39-37 113.64-37 113.64-35.75Q112.69-36.05 111.89-36.05L111.89-36.05Q110.94-36.05 110.42-35.52 109.89-35 109.89-34L109.89-34 109.89-21.15 128.44-21.15 128.44-34Q128.44-35 127.92-35.52 127.39-36.05 126.44-36.05L126.44-36.05Q125.69-36.05 124.69-35.75L124.69-35.75 124.69-37 135.94-37 135.94-35.75Z" fill="#000000" data-fill-palette-color="primary"></path></g></svg></g></svg></g></svg></g></svg></g><g transform="matrix(1,0,0,1,113.64075076108938,0)"><svg viewBox="0 0 168.23849847782122 148.21927211432762" height="148.21927211432762" width="168.23849847782122"><g><svg xmlns="http://www.w3.org/2000/svg" xmlns:xlink="http://www.w3.org/1999/xlink" version="1.1" x="0" y="0" viewBox="6.3 11.5 87.4 77" style="enable-background:new 0 0 100 100;" xml:space="preserve" height="148.21927211432762" width="168.23849847782122" class="icon-icon-0" data-fill-palette-color="accent" id="icon-0"><path d="M72.3 12.3L72.3 12.3 72.3 12.3l-0.4-0.8H28.2L6.3 50l21.8 38.5h43.7L93.7 50 72.3 12.3zM33.3 25.3L9.9 47.7l18.6-32.8L33.3 25.3zM70.7 14.8l6.4 35.7L36.9 25.8 70.7 14.8zM35.5 27.3l41 25.2-41 23.3V27.3zM77 54.5l-7.2 30.8-32.6-8.1L77 54.5zM33.5 75L9.9 50.5l23.6-22.7V75zM33.2 77.6l-4.6 7.7L11.5 55.1 33.2 77.6zM35 78.6l31.4 7.9H30.2L35 78.6zM79.3 53.3l11.6-2.5L72.1 84 79.3 53.3zM90.7 48.9l-11.4 2.5-5.9-33.1L90.7 48.9zM35 24.3l-5-10.8h38.2L35 24.3z" fill="#000000" data-fill-palette-color="accent"></path></svg></g></svg></g><g></g></svg></g><defs></defs></svg><rect width="348.2074292394542" height="247.2" fill="none" stroke="none" visibility="hidden"></rect></g></svg></g></svg>